<?xml version="1.0" encoding="UTF-8"?>
<svg id="Layer_1" data-name="Layer 1" xmlns="http://www.w3.org/2000/svg" viewBox="0 0 203.72 254.14">
  <defs>
    <style>
      .cls-1 {
        fill: #18355a;
      }

      .cls-2 {
        fill: #0c244b;
      }

      .cls-3 {
        fill: #064c85;
      }

      .cls-4 {
        fill: #18355b;
      }

      .cls-5 {
        fill: #223d5f;
      }

      .cls-6 {
        fill: #153258;
      }

      .cls-7 {
        fill: #183355;
      }

      .cls-8 {
        fill: #050f2d;
      }

      .cls-9 {
        fill: #1c385e;
      }

      .cls-10 {
        fill: #052047;
      }

      .cls-11 {
        fill: #021437;
      }

      .cls-12 {
        fill: #014075;
      }

      .cls-13 {
        fill: #13172d;
      }

      .cls-14 {
        fill: #2d486d;
      }

      .cls-15 {
        fill: #17365d;
      }

      .cls-16 {
        fill: #051841;
      }

      .cls-17 {
        fill: #024176;
      }

      .cls-18 {
        fill: #0c2a54;
      }

      .cls-19 {
        fill: #122e53;
      }

      .cls-20 {
        fill: #152e4f;
      }

      .cls-21 {
        fill: #11294f;
      }

      .cls-22 {
        fill: #024075;
      }

      .cls-23 {
        fill: #143056;
      }

      .cls-24 {
        fill: #0c325d;
      }

      .cls-25 {
        fill: #335476;
      }
    </style>
  </defs>
  <path class="cls-12" d="M106.31,1.57c9.2,4.5,18.1,8.57,27,13.46,13.95,7.68,28.22,14.25,42.75,20.94,2.48,1.14,5.36,2.03,7.5,2.99-.4,1.92.93,1.54,2.05,2.03,2.2.97,16,7.67,16.54,8.59,2.01,3.45-1.95,5.91-4.34,7.33-1.68.89-6.54,2.77-6.8,4.83l.04,15.74c2.07,2.82,2.54,2.01,3.76,5.6-.92,8.75,1.32,16.3,3.54,24.56.35,1.3-.46,2.81,1.71,2.37.03,2.1.13,3.39-2.07,4.3-2.41,1-12.76,1.65-15.93,1.69v-1.49s-8.25-.75-8.25-.75c.73-2.97,1.04-5.96,1.5-8.98.14-.93-.15-2.07,0-2.99,1.9.38,1.59-.86,2.02-2.07,2.17-6.2,1.86-11.63,1.73-18.13,1.18-3.13,2.53-2.54,4.36-5l.14-11.45c-.52-1.62-3.37-.02-4.48.39-3.36,1.26-5.46,3.21-8.27,4.84-.45.18-1.43.02-2.24.35-3.41,1.39-6.51,3.67-10.04,4.83-.78.33-.41.99-.47,1.55-1.15,11.98,3.34,19.39-8.25,27.68l-6,1.5c-1.64-5.71,3.1-7.35,3.75-11.97.03-.24-.02-.5,0-.75.24-.24.58-.46.75-.75,1.43-2.45.81-13.87.76-17.59-.02-1.27.48-3.33-.76-4.1-.03-.48.1-1.12,0-1.5-.12-.43-.25-.72-.75-.75h-.75c0-.16-.69-.48-.75-.75-.01-.05.74-.41.76-.71-17.07-7.42-36.61-9.38-55.16-8.29-2.81.16-5.95,1.17-8.59,1.53-5.95.8-10.91,1.26-16.83,3.04-2.82.85-8.41,2.57-10.17,4.44-.21.22-.92.28-1.12.75-.8,1.75-.66,18.3-.37,21.3.31,3.23,1.62,8.86,5.24,10.11.98,6.86-.72,8.35-6.56,4.67-10.14-6.4-8.13-17.35-8.56-27.74-3.25-.91-6.01-3.14-8.88-4.61.36-1.65-.81-1.67-1.94-2.14-4.89-2.03-9.72-4.22-14.48-6.54-4.03-1.97-8.2-5.41-12.83-5.53-2.2-1.45-7.34-4.41-6.46-7.51.28-.96,1-1.47,1.69-2.11,1.96-1.81,6.91-4,9.26-5.34,9.07-2.34,17.27-7.62,25.5-11.97,1.32-.7,2.63-1.66,3.75-2.24,10.01-3.27,20.15-8.63,29.53-13.6,1.05-.56,2.37-.3,1.97-2.11,1.28-.58,2.59-.99,3.75-1.5,1.62-.72,4.45-1.22,6.51-2.11,7.97-3.47,15.11-9.73,24.24-8.36Z"/>
  <path class="cls-22" d="M104.81,68.89c5.64-.02,11.7.47,17.25,1.5s11.44,3.47,17.25,4.49c1.29,2.09.91,13.92.75,17.2h-6.75c.85,5.22-.81,11.23-.81,16.08,0,1.9.77,3.49.81,4.86.29,10.22,0,11.46,5.29,20.37.61,1.02,2.65,3.59,3.71,4.31,7.93,14.16,16.71,27.59,24.75,41.89,1.26,2.24,2.59,5.32,3.75,7.7l3.75,4.27c2.8,5,5.87,9.7,8.25,14.96,1.14,6.75,1.98,13.29,1.5,20.2-2.14,8.05-5.87,13.85-12,19.45-3.86.87-6.69,3.59-10.65,4.71-2.65.75-7.72,1.8-10.35,2.02-30.04,2.54-66.26-.34-97.14-.01-1.27.01-3.34-.48-4.11.76-9.22-1.48-16.34-5.17-22.5-11.97l-4.9-10.48-1.85-2.23c-3.95-15.61.51-20.95,7.46-33.48,12.34-22.25,27.51-44.96,39.71-66.59.66-1.16.89-4.18,2.33-4.65.04-.01.72,1.3.75.37-.99-9.34,1.32-21.3,0-30.29-.14-.98-.04-1.76-1.23-2.13l-4.77-.11v-17.21c7.11-2.16,13.64-3.51,21-4.49,6.13-.82,12.55-1.47,18.75-1.5ZM84.56,93.57c-.18.27-.67.52-.75.75-.11.34-.65.54-.8,1.79-1.11,9.3.92,20.82.05,30.38-2.04,9.12-17.54,31.86-23.25,41.14-4.26,6.92-9.52,13.59-13.16,20.91-.61,1.22-1.2,2.35-1.09,3.77-3.48,5.72-8.33,11.56-10.5,17.95-1.98-.43-1.48.99-1.86,2.22-1.44,4.64-1.39,6.24-.49,11.01.26,1.39-.64,2.91,1.6,2.48.05.25-.06.52,0,.75.45,1.68.48,1.66,1.5,2.99.64.83,8.11,7.73,8.75,8.07,1.52.81,3.11.77,4.75.91-.42,2.26,1.15,1.45,2.59,1.5,33.67,1.12,68.19-.22,101.66-.75,3.6.28,8.15-1.11,10.5-3.74.55-.62-.59-1.56,2.25-2.24.09-.02-.34,1.27,1.14.02,6.24-5.27,6.31-15.55,3.95-22.67-.49-1.47-2.39-6.6-4.33-6.53-.84-1.91-2.03-4.08-3-5.98-2.37-4.65-5.19-9.73-7.92-14.17-1.2-1.96-3.41-5.97-5.58-6.77-7.43-12.72-21.74-33.11-26.25-45.63-.6-1.66-2.85-6.7-3-7.48-1.45-7.41.47-21.43,0-29.92-.03-.5.03-1,0-1.49-.6-.19-.63.72-.74.75-.22.05-.5-.01-.75,0,.42-2.26-1.15-1.45-2.59-1.5-10.5-.35-21.06.3-31.58-.05l-1.01.15c-.34.27.04,1.21-.08,1.39Z"/>
  <path class="cls-9" d="M83.06,60.66c2.65-.36,5.78-1.36,8.59-1.53,18.56-1.09,38.09.87,55.16,8.29-.01.31-.77.66-.76.71-19.66-7.54-42.11-9.3-63-6.73v-.75Z"/>
  <path class="cls-8" d="M151.31,252.89v.75c-33.3,1.57-67.82-1.17-101.25,0,.78-1.24,2.85-.75,4.11-.76,30.88-.32,67.09,2.55,97.14.01Z"/>
  <path class="cls-20" d="M56.06,68.14c1.09,7.05-2.02,23.31,1.32,28.99,1.05,1.79,2.1.91,2.43,3.18-3.61-1.25-4.93-6.88-5.24-10.11-.29-3-.43-19.55.37-21.3.2-.47.91-.53,1.12-.75Z"/>
  <path class="cls-1" d="M65.06,74.88v17.21s4.77.11,4.77.11c1.19.37,1.09,1.15,1.23,2.13h-.75l-6.75-.74v-17.59c.01-1.28.78-1.34,1.5-1.86v.75Z"/>
  <path class="cls-15" d="M176.06,35.98c-14.53-6.69-28.8-13.27-42.75-20.94l42.75,20.94Z"/>
  <path class="cls-1" d="M83.06,60.66v.75c-9.29,1.14-18.11,4.46-27,6.73,1.76-1.88,7.35-3.6,10.17-4.44,5.92-1.78,10.88-2.23,16.83-3.04Z"/>
  <path class="cls-15" d="M71.81,13.54c.4,1.81-.92,1.55-1.97,2.11-9.38,4.97-19.52,10.33-29.53,13.6,10.42-5.4,20.78-10.91,31.5-15.71Z"/>
  <path class="cls-20" d="M200.06,110.03c-2.17.45-1.36-1.07-1.71-2.37-2.22-8.26-4.46-15.81-3.54-24.56,1.46,4.33.9,8.46,1.69,12.9s3.5,9.8,3.56,14.03Z"/>
  <path class="cls-6" d="M36.56,31.49c-8.23,4.35-16.43,9.63-25.5,11.97,7.99-4.54,16.68-9.46,25.5-11.97Z"/>
  <path class="cls-7" d="M140.06,92.08c-.02.5.04,1,0,1.49h-6.01c.14,6.47-.18,12.98,0,19.45h-.75c-.04-1.37-.82-2.97-.81-4.86,0-4.85,1.66-10.86.81-16.09h6.75Z"/>
  <path class="cls-19" d="M86.06,68.89v1.5c-7.36.98-13.89,2.33-21,4.49v-.75c3.62-2.59,16.2-4.66,21-5.24Z"/>
  <path class="cls-23" d="M172.31,246.16c-6.14,5.61-12.83,7.09-21,7.48v-.75c2.63-.22,7.7-1.27,10.35-2.02,3.96-1.12,6.79-3.84,10.65-4.71Z"/>
  <path class="cls-5" d="M184.31,226.71c.48-6.91-.36-13.44-1.5-20.2,3.52,7.77,3.69,11.94,1.5,20.2Z"/>
  <path class="cls-8" d="M71.06,94.32c1.32,9-.98,20.95,0,30.29-.03.93-.71-.39-.75-.37v-29.92h.75Z"/>
  <path class="cls-19" d="M179.06,81.61c.13,6.5.44,11.93-1.73,18.13-.42,1.21-.12,2.45-2.02,2.07.37-2.2,1.65-4.9,2.05-7.31.65-4,.46-9.58,1.7-12.89Z"/>
  <path class="cls-9" d="M104.81,68.89c-6.2.02-12.62.68-18.75,1.5v-1.5c5.96-.71,12.9-1.62,18.75,0Z"/>
  <path class="cls-18" d="M139.31,74.88c-5.81-1.02-11.48-3.42-17.25-4.49,3.28-1.08,15.77,2.09,17.25,4.49Z"/>
  <path class="cls-15" d="M106.31,1.57c-9.14-1.37-16.28,4.89-24.24,8.36-2.06.9-4.88,1.4-6.51,2.11L98.2.59c4.32-.99,4.5-.78,8.11.98Z"/>
  <path class="cls-25" d="M147.56,69.64c-.49,7.76.66,16.27,0,23.94-.02.25.03.5,0,.75h-.75c.83-6.07.39-18.96,0-25.43h.75v.75Z"/>
  <path class="cls-1" d="M170.81,70.39c-.21.12-.76,1.09-1.69,1.65-3.24,1.94-7.51,3.7-11.06,5.08.05-.57-.32-1.23.47-1.55,3.53-1.16,6.63-3.43,10.04-4.83.81-.33,1.8-.17,2.24-.35Z"/>
  <path class="cls-19" d="M6.56,58.42c4.64.11,8.81,3.56,12.83,5.53,4.75,2.33,9.59,4.51,14.48,6.54,1.13.47,2.31.49,1.94,2.14-9.3-4.74-20.51-8.47-29.25-14.21Z"/>
  <path class="cls-7" d="M147.56,94.32c-.65,4.62-5.38,6.26-3.75,11.97l6-1.5c-1.11.8-6.47,4.78-7.5,3.74.37-2.22-.54-5.75-.01-7.69.14-.5,4.15-3.85,4.51-6.52h.75Z"/>
  <path class="cls-18" d="M183.56,65.15c-4.23,1.77-8.51,3.48-12.75,5.24,2.81-1.63,4.91-3.58,8.27-4.84,1.11-.42,3.96-2.01,4.48-.39Z"/>
  <path class="cls-19" d="M134.06,113.02c.37,12.73,2.39,14.23,8.25,24.68-1.06-.72-3.11-3.29-3.71-4.31-5.29-8.92-4.99-10.16-5.29-20.37h.75Z"/>
  <path class="cls-19" d="M173.81,113.77l8.26.75v1.49c-1.95.02-6.01-.2-7.72-.77-.91-.3-.43-1.37-.54-1.48-.12-.12-1.44.32-1.52-.44-.14-1.28,1.67-7.4,3.02-8.54-.46,3.01-.77,6.01-1.5,8.98Z"/>
  <path class="cls-19" d="M20.81,228.96l1.85,2.23,4.9,10.48c-3.92-4.33-5.32-7.06-6.75-12.72Z"/>
  <path class="cls-18" d="M197.81,56.92c2.39-1.42,6.35-3.88,4.34-7.33-.53-.92-14.34-7.61-16.54-8.59-1.12-.5-2.45-.11-2.05-2.03,3.42,1.53,16.39,7.16,18.31,9.04,4.67,4.55-.54,7.06-4.06,8.92Z"/>
  <path class="cls-19" d="M174.56,191.56l-3.75-4.27c-1.17-2.37-2.49-5.45-3.75-7.7,3.66,2.85,5.31,8.08,7.5,11.97Z"/>
  <path class="cls-11" d="M148.31,71.14c.44,7.14-.32,14.52,0,21.69-.17.29-.51.51-.75.75.66-7.67-.49-16.17,0-23.94h.75c.1.38-.03,1.01,0,1.5Z"/>
  <path class="cls-3" d="M148.31,92.83c-.32-7.17.44-14.55,0-21.69,1.24.78.75,2.84.76,4.1.05,3.72.67,15.14-.76,17.59Z"/>
  <path class="cls-9" d="M148.31,69.64h-.75v-.75c.5.02.63.32.75.75Z"/>
  <path class="cls-16" d="M56.06,238.68c1.4,1.26,5.35,1.26,6.75,0,.75,0,1.5,0,2.25,0,.49,1.18,3.26,1.18,3.75,0,.5,0,1,0,1.5,0h45c3.74-.02,7.51.03,11.25,0,4.37,1.33,9.98.81,14.64.76,1.27-.01,3.34.48,4.11-.76,1.74-.04,3.51.08,5.25,0l3,.75c-33.47.53-67.99,1.87-101.66.75-1.44-.05-3.01.76-2.59-1.5,2.2.18,4.53-.06,6.75,0Z"/>
  <path class="cls-1" d="M167.06,204.28c1.94-.08,3.84,5.06,4.33,6.53,2.36,7.12,2.29,17.4-3.95,22.67-1.48,1.25-1.04-.05-1.14-.02.68-2.65,2.85-4.44,3.89-6.97,3.47-8.44.18-14.65-3.14-22.2Z"/>
  <path class="cls-10" d="M84.56,93.57c.12-.18-.26-1.13.08-1.39l1.01-.15c10.51.35,21.07-.3,31.58.05,1.45.05,3.01-.76,2.59,1.5-3.22.13-6.52,0-9.75,0l-.38-.73-.38.73c-1.5,0-3,0-4.5,0-4.03-1.25-10.17-1.26-14.25,0h-1.5c-.24-1.12-2.69-1.16-3,0h-1.5Z"/>
  <path class="cls-16" d="M83.06,126.49c.88-9.55-1.16-21.07-.05-30.38.15-1.24.68-1.45.8-1.79-.67,9.55.88,20.22.05,29.63-.13,1.45-.66,1.91-.8,2.53Z"/>
  <path class="cls-13" d="M121.31,124.24h-.75c-.99-9.39.73-20.35,0-29.92h.75c.47,8.49-1.45,22.51,0,29.92Z"/>
  <path class="cls-23" d="M35.06,210.26c-1.87,5.5-1.89,10.03-.75,15.71-2.25.44-1.34-1.09-1.6-2.48-.9-4.77-.94-6.37.49-11.01.38-1.23-.12-2.65,1.86-2.22Z"/>
  <path class="cls-24" d="M124.31,131.72c-2.43.15-3.53-5.38-3.75-7.48h.75c.15.78,2.4,5.82,3,7.48Z"/>
  <path class="cls-21" d="M164.06,198.29l-2.96-2.82c-3.24-6.19-7.02-12.09-10.54-18.12,2.18.8,4.38,4.82,5.58,6.77,2.73,4.44,5.55,9.52,7.92,14.17Z"/>
  <path class="cls-14" d="M164.06,235.69c-2.35,2.63-6.9,4.02-10.5,3.74l-3-.75c2.1-.1,3.87.11,6.05-.33,2.95-.6,4.55-2.56,7.45-2.66Z"/>
  <path class="cls-23" d="M59.81,167.62c.13,1.49-.37,2.27-1.05,3.46-4.15,7.19-8.89,14.15-13.2,21.23-.11-1.42.48-2.55,1.09-3.77,3.64-7.32,8.91-14,13.16-20.91Z"/>
  <path class="cls-10" d="M121.31,94.32h-.75v-.75c.11-.02.14-.94.74-.75.04.49-.02,1,0,1.49Z"/>
  <path class="cls-23" d="M35.81,229.71c-1.02-1.33-1.05-1.31-1.5-2.99l1.5,2.99Z"/>
  <path class="cls-12" d="M91.31,182.58c3.05.56,5.77,2.4,9,2.24,4.14,3.66,11.23,4.75,16.5,5.98,4.1,2.08,10.85,3.93,15.47,4.4,5.56.56,11.27-.47,16.78.09,3.12,5.18,6.19,10.34,9,15.71.59,1.13.88,2.45,2.25,2.99.06.23-.06.51,0,.75,1.07,4.66.51,7.47-.75,11.97-2.52,2.74-3.82,2.64-6.75,3.74l-97.91.04-7.84-2.28c-1.44-1.25-.85-.99-1.5-2.24-1.39-5.89-.8-10.23,1.5-15.71,4.02-6.6,8.54-16.15,12.75-21.69.07-.09,1.12.11,1.49-.36.82-1.04.93-2.45,1.82-3.45,3.39-3.8,22.96-3.14,28.19-2.18ZM86.81,196.8c-3.09-4.4-12.65,2.28-12,6.73-.51,2.09.15,4.68.75,6.73.3,1.01.36,2.19,1.13,3.01s1.36.5,1.87.73c.2.09.53-.09.75,0,.3,3.41,7.97,3.09,9.75,1.84.79-.55.62-1.72.75-1.84,1.22-1.11,1.09-.95,2.25-2.24.13-.15,1.35.09,2.12-1.22,1.61-2.77.91-8.23-1.01-10.74-1.06-1.39-1.72-.99-2.61-1.49-1.66-.93-1.26-1.25-3.75-1.5Z"/>
  <path class="cls-22" d="M129.56,176.6c-3.33,4.95-9.23,4.71-14.25,2.24-2.24-3.55-3.03-6.82-1.63-10.94.41-1.2,1.97-.97,1.63-2.52,9.19-6.24,18.82.29,14.25,11.22Z"/>
  <path class="cls-17" d="M95.81,147.43c6.48-1.48,12.07.04,11.19,7.77-.22,1.91-1.13,4.08-2.94,4.95-6.55,3.15-12.63-2.04-11.25-8.98.26-.56-.13-1.65.69-2.68.73-.92,1.73-.72,2.31-1.06Z"/>
  <path class="cls-18" d="M152.81,230.45c-.13.05-.34.98-.78,1.1l-1.79.43c-30.5-2.12-64.51,2.67-94.59-.01-3.99-.36-5.71-1.26-8.59-3.77l7.84,2.28,97.91-.04Z"/>
  <path class="cls-21" d="M118.31,190.81c10.32,2.32,19.49,5.03,30.29,2.96.91.17.31,1.28.46,1.53-5.51-.56-11.22.47-16.78-.09-4.61-.47-11.36-2.31-15.47-4.4.44.1,1.05-.1,1.5,0Z"/>
  <path class="cls-14" d="M115.31,238.68h-45c14.98.11,30.02.06,45,0Z"/>
  <path class="cls-19" d="M104.06,160.14v.75c-5.26,3.09-11.89.6-12.73-5.68-.46-3.47,1.02-3.05,1.48-4.05-1.38,6.93,4.7,12.12,11.25,8.98Z"/>
  <path class="cls-2" d="M91.31,182.58c-5.23-.96-24.79-1.62-28.19,2.18-.89.99-.99,2.41-1.82,3.45-.37.47-1.42.26-1.49.36.75-1.71,3.32-5.16,4.83-6.03,4.31-2.47,21.65-2.43,26.67.04Z"/>
  <path class="cls-4" d="M118.31,190.81c-.45-.1-1.06.1-1.5,0-5.27-1.23-12.36-2.33-16.5-5.98l18,5.98Z"/>
  <path class="cls-6" d="M45.56,225.97c-1.71-3.29-2.64-3.3-2.26-7.85.34-3.99,2.02-5.01,3.76-7.86-2.3,5.47-2.89,9.82-1.5,15.71Z"/>
  <path class="cls-1" d="M115.31,165.38c.35,1.55-1.21,1.31-1.63,2.52-1.41,4.13-.62,7.4,1.63,10.94v.75c-4.12-2.92-5.01-9.21-1.76-13.32,1.03-1.3,1.49-.71,1.76-.89Z"/>
  <path class="cls-21" d="M129.56,176.6c-1.12,2.68-2.12,4.52-5.66,5.2-3.73.72-5.74-.19-8.59-2.21v-.75c5.02,2.46,10.92,2.71,14.25-2.24Z"/>
  <path class="cls-14" d="M145.31,238.68c-.78,1.24-2.85.75-4.11.76-4.65.05-10.27.57-14.64-.76,6.24-.04,12.52.13,18.75,0Z"/>
  <path class="cls-21" d="M159.56,226.71c1.26-4.5,1.82-7.31.75-11.97,3.08,2.91,1.77,9.23-.75,11.97Z"/>
  <path class="cls-6" d="M95.81,147.43c.3-.18.28-1.19,1.86-1.48,8.68-1.64,14.62,7.82,8.22,14.18-.73.73-1.43.53-1.83.76v-.75c1.81-.87,2.73-3.04,2.94-4.95.87-7.73-4.71-9.25-11.19-7.77Z"/>
  <path class="cls-22" d="M104.81,93.57c-4.74,0-9.51,0-14.25,0,4.08-1.26,10.22-1.25,14.25,0Z"/>
  <path class="cls-14" d="M62.81,238.68c-1.4,1.26-5.35,1.26-6.75,0,2.24.06,4.51-.03,6.75,0Z"/>
  <path class="cls-14" d="M68.81,238.68c-.49,1.18-3.26,1.18-3.75,0,1.25.01,2.5-.01,3.75,0Z"/>
  <path class="cls-22" d="M89.06,93.57h-3c.31-1.16,2.76-1.12,3,0Z"/>
  <path class="cls-21" d="M160.31,214c-1.37-.54-1.66-1.86-2.25-2.99,1.15.52,1.93,1.84,2.25,2.99Z"/>
  <path class="cls-22" d="M110.06,93.57c-.25,0-.5,0-.75,0l.38-.73.38.73Z"/>
  <path class="cls-6" d="M92.06,211.76c3.02-4.75,1.52-9.24-1.5-13.46.89.5,1.55.11,2.61,1.49,1.92,2.52,2.62,7.97,1.01,10.74-.77,1.32-1.99,1.08-2.12,1.22Z"/>
  <path class="cls-18" d="M89.81,214c-.13.12.04,1.29-.75,1.84-1.79,1.25-9.45,1.57-9.75-1.84,3.79,1.45,6.73,2.6,10.5,0Z"/>
  <path class="cls-6" d="M86.81,196.8c-2.69-.26-5.72-.19-8.04,1.33-1.01.66-3.77,4.65-3.96,5.41-.65-4.45,8.91-11.13,12-6.73Z"/>
  <path class="cls-18" d="M75.56,210.26l3,3.74c-.51-.23-1.12.05-1.87-.73s-.83-2-1.13-3.01Z"/>
</svg>